<svg xmlns="http://www.w3.org/2000/svg" xmlns:xlink="http://www.w3.org/1999/xlink" width="256" height="256" viewBox="0 0 256 256">
  <defs>
    <filter id="Kreis" x="9" y="9" width="238" height="238" filterUnits="userSpaceOnUse">
      <feOffset input="SourceAlpha"/>
      <feGaussianBlur stdDeviation="8" result="blur"/>
      <feFlood flood-opacity="0.161"/>
      <feComposite operator="in" in2="blur"/>
      <feComposite in="SourceGraphic"/>
    </filter>
    <clipPath id="clip-icon-256x256">
      <rect width="256" height="256"/>
    </clipPath>
  </defs>
  <g id="icon-256x256" clip-path="url(#clip-icon-256x256)">
    <rect width="256" height="256" fill="#fff"/>
    <rect id="Weisser_Grund" data-name="Weisser Grund" width="256" height="256" fill="#fff"/>
    <g id="Combined_Shape" data-name="Combined Shape" transform="translate(-271.798 -24)" fill="#353535" stroke-miterlimit="10">
      <path d="M 399.7980651855469 170.9999542236328 C 259.4634399414062 170.9999542236328 123.403434753418 159.2925720214844 -4.602693557739258 136.2032012939453 L -25.98731803894043 132.3458251953125 L -25.98731803894043 110.616081237793 L -25.98731803894043 -4.57763671875e-05 L -25.98731803894043 -26.00004577636719 L 0.0126813966780901 -26.00004577636719 L 799.5842895507812 -26.00004577636719 L 825.5842895507812 -26.00004577636719 L 825.5842895507812 -4.57763671875e-05 L 825.5842895507812 110.6159515380859 L 825.5842895507812 132.345703125 L 804.19970703125 136.2030792236328 C 676.1930541992188 159.2925720214844 540.1326904296875 170.9999542236328 399.7980651855469 170.9999542236328 Z" stroke="none"/>
      <path d="M 399.7979736328125 144.9999542236328 C 541.75048828125 144.9999542236328 676.88818359375 132.7474517822266 799.5843505859375 110.6160888671875 L 799.5843505859375 -4.57763671875e-05 L 0.01252230536192656 -4.57763671875e-05 L 0.01252230536192656 110.6160888671875 C 122.7086563110352 132.7476806640625 257.8454895019531 144.9999542236328 399.7979736328125 144.9999542236328 M 399.7979736328125 196.9999542236328 C 257.9202575683594 196.9999542236328 120.3072967529297 185.1535949707031 -9.218159675598145 161.7901763916016 L -51.98747634887695 154.0756378173828 L -51.98747634887695 110.6160888671875 L -51.98747634887695 -4.57763671875e-05 L -51.98747634887695 -52.00004577636719 L 0.01252230536192656 -52.00004577636719 L 799.5843505859375 -52.00004577636719 L 851.5843505859375 -52.00004577636719 L 851.5843505859375 -4.57763671875e-05 L 851.5843505859375 110.6160888671875 L 851.5843505859375 154.0756378173828 L 808.8148193359375 161.7901763916016 C 679.2882080078125 185.1538238525391 541.675048828125 196.9999542236328 399.7979736328125 196.9999542236328 Z" stroke="none" fill="#77adbf"/>
    </g>
    <g transform="matrix(1, 0, 0, 1, 0, 0)" filter="url(#Kreis)">
      <circle id="Kreis-2" data-name="Kreis" cx="95" cy="95" r="95" transform="translate(33 33)" fill="#fff"/>
    </g>
    <path id="Icon" d="M80.4,93.322a8.805,8.805,0,0,1-2.678-6.459,66.963,66.963,0,0,0-2.469-18.224,69.432,69.432,0,0,0-6.933-16.385A68.546,68.546,0,0,0,57.61,38.389,68.6,68.6,0,0,0,43.746,27.676a69.42,69.42,0,0,0-16.385-6.932A66.922,66.922,0,0,0,9.138,18.275,8.8,8.8,0,0,1,2.678,15.6,8.8,8.8,0,0,1,0,9.138,8.8,8.8,0,0,1,2.678,2.678,8.8,8.8,0,0,1,9.138,0,85.216,85.216,0,0,1,32.192,3.1,87.161,87.161,0,0,1,92.9,63.808,85.211,85.211,0,0,1,96,86.863a9.135,9.135,0,0,1-15.6,6.459Zm-34.556,0a8.8,8.8,0,0,1-2.678-6.459A33,33,0,0,0,40.49,73.628,34.232,34.232,0,0,0,22.372,55.51,33,33,0,0,0,9.138,52.832a8.8,8.8,0,0,1-6.459-2.678,9.128,9.128,0,0,1,0-12.919,8.8,8.8,0,0,1,6.459-2.679A50.249,50.249,0,0,1,29.462,38.7a53.48,53.48,0,0,1,16.6,11.238,53.465,53.465,0,0,1,11.238,16.6,50.253,50.253,0,0,1,4.149,20.325,9.135,9.135,0,0,1-15.6,6.459Zm-37.76,1.05A12.818,12.818,0,0,1,1.313,87.6a13.1,13.1,0,0,1,0-10.03,12.719,12.719,0,0,1,2.731-4.1A12.873,12.873,0,0,1,8.087,70.74a12.585,12.585,0,0,1,5.042-1A12.774,12.774,0,0,1,25.943,82.555a12.579,12.579,0,0,1-1,5.042,12.882,12.882,0,0,1-2.731,4.045,12.9,12.9,0,0,1-9.086,3.728A12.6,12.6,0,0,1,8.087,94.372Z" transform="translate(85 77)" fill="#77adbf"/>
  </g>
</svg>
